<svg xmlns="http://www.w3.org/2000/svg" viewBox="0 0 257.54 60"><defs><style>.a{fill:#e30016;}.a,.b,.c{fill-rule:evenodd;}.b{fill:#1f1f1c;}.c{fill:#1b1918;}</style></defs><path class="a" d="M16.28,3h9.6l-9.6,5.06L1,16.1V3ZM74.45,5.33H85.06v33H74.45Zm96.32,0h3.72c5,0,8,0,9,.13a9.87,9.87,0,0,1,4.76,1.16,4.83,4.83,0,0,1,2.13,2.63,14,14,0,0,1,.67,4.68,10.55,10.55,0,0,1-1,5.22,5.48,5.48,0,0,1-3.46,2.38,8,8,0,0,1,3.25,1.12c1.63,1.09,2.43,3.34,2.43,6.8,0,2.72-.41,4.72-1.25,6a5.21,5.21,0,0,1-2.3,2,14.38,14.38,0,0,1-4.09.79c-1.13.09-4.51.13-10.06.17H150.77v-33Zm0,7.76H160.34v5.26h14.15A22.49,22.49,0,0,0,180,18c.77-.3,1.2-1.09,1.2-2.38s-.5-2.09-1.42-2.34a47.55,47.55,0,0,0-5.33-.17Zm0,11.86H160.34v5.46h14.18c3,0,4.72,0,5.25-.09a5.19,5.19,0,0,0,1.39-.24c.88-.34,1.29-1.17,1.29-2.51s-.5-2.21-1.5-2.45a61,61,0,0,0-6.43-.17ZM89.64,5.33h18.24l9.85,21.46,9.81-21.46h18.14v33h-9.92L136,13.63h-1.67L121.9,38.34h-8.34L101.12,13.63h-1.8l.25,24.71H89.64Zm107.54,0h10.56v33H197.18Zm15.69,0h10.56V29.91h23.49v8.43h-34ZM16.28,26.74l-9.6-5,9.6-5,19-9.85,18.94,9.82,9.6,4.95-9.6,5.05-18.85,10Zm0,13.85H1V27.45L16.28,35.5l9.6,5.09ZM54.21,35.5l15.28-8V40.59H44.61Zm0-27.45L44.61,3H69.49V16.1Zm0,0" transform="translate(-1)"></path><path class="b" d="M53.41,55a2.44,2.44,0,0,1-.24,1,2.33,2.33,0,0,1-.67.85,3.57,3.57,0,0,1-1.09.59,4.78,4.78,0,0,1-1.51.21,7.45,7.45,0,0,1-1.7-.18A8.92,8.92,0,0,1,46.67,57V55.52h.08a4.75,4.75,0,0,0,1.53.85,5,5,0,0,0,1.63.3,3,3,0,0,0,1.68-.41,1.22,1.22,0,0,0,.6-1.07,1.16,1.16,0,0,0-.28-.86A2.08,2.08,0,0,0,51,53.9a8,8,0,0,0-.95-.19L49,53.52a3.24,3.24,0,0,1-1.72-.85,2.3,2.3,0,0,1,.37-3.35,3.83,3.83,0,0,1,2.35-.7,7.93,7.93,0,0,1,3.06.61v1.38H53a4.1,4.1,0,0,0-1.32-.7A5,5,0,0,0,50,49.63a2.61,2.61,0,0,0-1.5.39,1.16,1.16,0,0,0-.57,1,1.29,1.29,0,0,0,.28.86,1.9,1.9,0,0,0,1,.47c.26.06.61.12,1.07.2s.86.16,1.18.24a3.16,3.16,0,0,1,1.46.78,2.06,2.06,0,0,1,.5,1.47Zm7.38-.78A3.69,3.69,0,0,1,60,56.78a2.8,2.8,0,0,1-2.2.92,2.84,2.84,0,0,1-2.21-.92,4.36,4.36,0,0,1,0-5.06,2.82,2.82,0,0,1,2.21-.94,2.78,2.78,0,0,1,2.2.94,3.67,3.67,0,0,1,.83,2.53Zm-1.15,0a3,3,0,0,0-.49-1.89,1.89,1.89,0,0,0-2.78,0,3.83,3.83,0,0,0,0,3.75,1.69,1.69,0,0,0,1.39.63,1.66,1.66,0,0,0,1.38-.63,2.91,2.91,0,0,0,.5-1.86Zm4,3.27H62.49V48.38H63.6Zm7.64,0h-1.1v-.73a5.85,5.85,0,0,1-1.07.68,2.83,2.83,0,0,1-1.14.23,2.06,2.06,0,0,1-1.61-.63,2.68,2.68,0,0,1-.57-1.85V51h1.1V54.7a6.7,6.7,0,0,0,.05.85,1.38,1.38,0,0,0,.2.61.94.94,0,0,0,.41.38,1.77,1.77,0,0,0,.74.12,2.39,2.39,0,0,0,.94-.23,4.88,4.88,0,0,0,1-.57V51h1.1Zm7-.41-.42.18-.39.14c0,.07,0,.17,0,.28s0,.22,0,.33A1.93,1.93,0,0,1,77,59.5a2,2,0,0,1-1.4.5,4.66,4.66,0,0,1-1.16-.16v-1h0l.42.14a1.92,1.92,0,0,0,.55.08,1.47,1.47,0,0,0,.9-.23.89.89,0,0,0,.28-.74v-.26l0-.25-.18,0-.23,0a3.85,3.85,0,0,1-1.3-.21,2.62,2.62,0,0,1-1-.63,2.83,2.83,0,0,1-.67-1.07A4.57,4.57,0,0,1,73,54.25a3.47,3.47,0,0,1,.88-2.52,3.1,3.1,0,0,1,2.33-.92,3.77,3.77,0,0,1,1.11.16,4.86,4.86,0,0,1,1,.39v1.22H78.2a4.06,4.06,0,0,0-1-.6,2.85,2.85,0,0,0-1-.21,1.86,1.86,0,0,0-1.48.63,3.41,3.41,0,0,0,0,3.67,1.84,1.84,0,0,0,1.49.63,2.58,2.58,0,0,0,.68-.08,3.31,3.31,0,0,0,.63-.23,4.83,4.83,0,0,0,.45-.26l.33-.23h.06Zm7-2.86a3.69,3.69,0,0,1-.82,2.53,3.1,3.1,0,0,1-4.41,0,4.31,4.31,0,0,1,0-5.06,3.06,3.06,0,0,1,4.41,0,3.67,3.67,0,0,1,.82,2.53Zm-1.14,0a3,3,0,0,0-.5-1.89,1.67,1.67,0,0,0-1.38-.61,1.69,1.69,0,0,0-1.39.61,3.77,3.77,0,0,0,0,3.75,1.69,1.69,0,0,0,1.39.63,1.66,1.66,0,0,0,1.38-.63,3,3,0,0,0,.5-1.86ZM84.68,48a2.25,2.25,0,0,1-.45,1.34,1.3,1.3,0,0,1-1,.45,1.63,1.63,0,0,1-.59-.11,2,2,0,0,1-.51-.33,4.6,4.6,0,0,0-.47-.38.72.72,0,0,0-.42-.13.49.49,0,0,0-.46.27,1.63,1.63,0,0,0-.18.71H79.8a2,2,0,0,1,.47-1.34,1.29,1.29,0,0,1,1-.46,1.46,1.46,0,0,1,.57.12,2.27,2.27,0,0,1,.52.33,2.63,2.63,0,0,0,.49.36.83.83,0,0,0,.41.12.52.52,0,0,0,.46-.27,1.48,1.48,0,0,0,.19-.68Zm7.79,6.34H87.63a2.82,2.82,0,0,0,.18,1,1.94,1.94,0,0,0,.5.73,2,2,0,0,0,.73.42,2.73,2.73,0,0,0,.92.14,4,4,0,0,0,2.32-.79h0v1.21a11.6,11.6,0,0,1-1.13.39,4.92,4.92,0,0,1-1.22.16,3.52,3.52,0,0,1-2.55-.89,3.3,3.3,0,0,1-.92-2.5,3.58,3.58,0,0,1,.88-2.55,3,3,0,0,1,2.31-.95,2.68,2.68,0,0,1,2,.78,3.12,3.12,0,0,1,.72,2.2Zm-1.07-.84A2,2,0,0,0,91,52.17a1.72,1.72,0,0,0-1.31-.47,1.91,1.91,0,0,0-1.42.52,2.05,2.05,0,0,0-.6,1.3Zm7.43,2.1a1.77,1.77,0,0,1-.75,1.47,3.23,3.23,0,0,1-2,.58,4.72,4.72,0,0,1-1.34-.18,5.63,5.63,0,0,1-1-.38V55.87h.06a4.07,4.07,0,0,0,1.16.63,3.43,3.43,0,0,0,1.22.24,2.23,2.23,0,0,0,1.13-.24.77.77,0,0,0,.41-.74.76.76,0,0,0-.22-.59,2.12,2.12,0,0,0-.85-.34L96,54.71l-.68-.15a2.34,2.34,0,0,1-1.22-.67,1.68,1.68,0,0,1-.36-1.09,1.83,1.83,0,0,1,.16-.77,1.78,1.78,0,0,1,.51-.63,2.39,2.39,0,0,1,.84-.44,3.7,3.7,0,0,1,1.14-.16,5.44,5.44,0,0,1,1.19.14,4.44,4.44,0,0,1,1,.35v1.18h0a4,4,0,0,0-1-.53,3.62,3.62,0,0,0-1.19-.22,2,2,0,0,0-1,.24.81.81,0,0,0-.17,1.3,2,2,0,0,0,.8.34l.68.14c.25,0,.46.09.63.13a2.25,2.25,0,0,1,1.18.6,1.58,1.58,0,0,1,.42,1.15Zm11.29-1.26h-4.83a2.82,2.82,0,0,0,.18,1,1.94,1.94,0,0,0,.5.73,1.89,1.89,0,0,0,.73.42,2.69,2.69,0,0,0,.92.14,3.67,3.67,0,0,0,1.35-.26,3.37,3.37,0,0,0,1-.53H110v1.21a10.93,10.93,0,0,1-1.14.39,4.79,4.79,0,0,1-1.22.16,3.51,3.51,0,0,1-2.54-.89,3.26,3.26,0,0,1-.92-2.5,3.58,3.58,0,0,1,.88-2.55,3,3,0,0,1,2.31-.95,2.67,2.67,0,0,1,2,.78,3.12,3.12,0,0,1,.72,2.2Zm-1.07-.84a1.94,1.94,0,0,0-.44-1.35,1.69,1.69,0,0,0-1.31-.47,1.9,1.9,0,0,0-1.41.52,2.05,2.05,0,0,0-.6,1.3Zm12.32,4h-1.11V53.79a7.27,7.27,0,0,0,0-.82,1.7,1.7,0,0,0-.16-.63.89.89,0,0,0-.39-.38,1.59,1.59,0,0,0-.73-.13,2,2,0,0,0-.92.24,5.25,5.25,0,0,0-.93.58c0,.1,0,.2,0,.32s0,.23,0,.35v4.2H116V53.79c0-.29,0-.57,0-.83a1.79,1.79,0,0,0-.16-.62.84.84,0,0,0-.39-.38,1.59,1.59,0,0,0-.73-.13,2.21,2.21,0,0,0-.91.22,5.06,5.06,0,0,0-.9.58v4.89h-1.11V51h1.11v.72a5,5,0,0,1,1-.66,2.56,2.56,0,0,1,1.09-.25,2.14,2.14,0,0,1,1.14.29,1.69,1.69,0,0,1,.69.78,5.56,5.56,0,0,1,1.23-.82,2.9,2.9,0,0,1,1.18-.25,1.88,1.88,0,0,1,1.59.66,2.85,2.85,0,0,1,.52,1.83Zm13-2.69a2.63,2.63,0,0,1-.25,1.15,2.24,2.24,0,0,1-.67.82,2.93,2.93,0,0,1-1.08.56,5.68,5.68,0,0,1-1.5.16h-3.11V48.78h2.6a10.14,10.14,0,0,1,1.43.07,2.93,2.93,0,0,1,.91.29,1.54,1.54,0,0,1,.7.65,1.88,1.88,0,0,1,.22,1,1.68,1.68,0,0,1-.32,1,2.34,2.34,0,0,1-.84.71v0a2.35,2.35,0,0,1,1.39.78,2.2,2.2,0,0,1,.52,1.51Zm-2-3.93a1.19,1.19,0,0,0-.11-.53A.82.82,0,0,0,132,50a1.65,1.65,0,0,0-.67-.19,9,9,0,0,0-1,0H129v2.5h1.5a4.9,4.9,0,0,0,.87-.06A1.42,1.42,0,0,0,132,52a.9.9,0,0,0,.39-.45,1.6,1.6,0,0,0,.12-.65Zm.74,4A1.82,1.82,0,0,0,133,54a1.22,1.22,0,0,0-.57-.52,1.93,1.93,0,0,0-.69-.19,8.64,8.64,0,0,0-1,0H129v3.24h1.54a8.43,8.43,0,0,0,1.25-.08,2,2,0,0,0,.8-.29,1.39,1.39,0,0,0,.48-.52,1.61,1.61,0,0,0,.15-.75Zm8.35-.62a3.69,3.69,0,0,1-.82,2.53,3.1,3.1,0,0,1-4.41,0,4.31,4.31,0,0,1,0-5.06,3.06,3.06,0,0,1,4.41,0,3.67,3.67,0,0,1,.82,2.53Zm-1.14,0a3,3,0,0,0-.49-1.89,1.89,1.89,0,0,0-2.78,0,3.8,3.8,0,0,0,0,3.75,1.83,1.83,0,0,0,2.76,0,2.91,2.91,0,0,0,.5-1.86Zm12.42,3.27h-1.1V53.79a7.27,7.27,0,0,0,0-.82,1.92,1.92,0,0,0-.16-.63.89.89,0,0,0-.39-.38,1.57,1.57,0,0,0-.72-.13,2,2,0,0,0-.93.24,5.25,5.25,0,0,0-.93.58c0,.1,0,.2,0,.32s0,.23,0,.35v4.2h-1.1V53.79c0-.29,0-.57,0-.83a1.79,1.79,0,0,0-.16-.62.84.84,0,0,0-.39-.38,1.59,1.59,0,0,0-.73-.13,2.21,2.21,0,0,0-.91.22,5.06,5.06,0,0,0-.9.58v4.89h-1.11V51h1.11v.72a5,5,0,0,1,1-.66,2.56,2.56,0,0,1,1.09-.25,2.14,2.14,0,0,1,1.14.29,1.77,1.77,0,0,1,.7.78,5.31,5.31,0,0,1,1.22-.82,2.94,2.94,0,0,1,1.18-.25,1.88,1.88,0,0,1,1.59.66,2.85,2.85,0,0,1,.51,1.83Zm7.92-3.33a4.29,4.29,0,0,1-.24,1.48,3.16,3.16,0,0,1-.63,1.11,3,3,0,0,1-.91.69,2.64,2.64,0,0,1-1.1.23,3.19,3.19,0,0,1-1-.13,4.54,4.54,0,0,1-.82-.36l-.07.31h-1V48.38h1.11v3.27a4.44,4.44,0,0,1,1-.62,2.75,2.75,0,0,1,1.17-.25,2.17,2.17,0,0,1,1.84.9,4.07,4.07,0,0,1,.68,2.51Zm-1.15,0a3.41,3.41,0,0,0-.38-1.78,1.39,1.39,0,0,0-1.26-.61,2.42,2.42,0,0,0-1,.21,4,4,0,0,0-.92.54v3.75a4.25,4.25,0,0,0,.81.29,3,3,0,0,0,.76.08,1.8,1.8,0,0,0,1.44-.6,2.81,2.81,0,0,0,.52-1.88Zm8.35.14h-4.84a2.81,2.81,0,0,0,.19,1,1.83,1.83,0,0,0,.5.73,1.85,1.85,0,0,0,.72.42,2.75,2.75,0,0,0,.93.14,3.58,3.58,0,0,0,1.34-.26,3.45,3.45,0,0,0,1-.53h.06v1.21a10.93,10.93,0,0,1-1.14.39,4.92,4.92,0,0,1-1.22.16,3.52,3.52,0,0,1-2.55-.89,3.29,3.29,0,0,1-.91-2.5,3.62,3.62,0,0,1,.87-2.55,3,3,0,0,1,2.31-.95,2.68,2.68,0,0,1,2,.78,3.12,3.12,0,0,1,.72,2.2Zm-1.07-.84a1.94,1.94,0,0,0-.44-1.35,1.72,1.72,0,0,0-1.31-.47,1.91,1.91,0,0,0-1.42.52,2.05,2.05,0,0,0-.6,1.3Zm7.85,4h-1.11v-.7c-.1.06-.23.16-.39.28a2.76,2.76,0,0,1-.49.28,2.58,2.58,0,0,1-.63.23,3.46,3.46,0,0,1-.83.09,2.13,2.13,0,0,1-1.5-.58,2,2,0,0,1-.62-1.5,2.07,2.07,0,0,1,.32-1.21,2,2,0,0,1,.91-.73,4.75,4.75,0,0,1,1.43-.36c.56-.06,1.16-.11,1.8-.14V53a1.34,1.34,0,0,0-.13-.63,1,1,0,0,0-.38-.39,1.48,1.48,0,0,0-.56-.18,5.09,5.09,0,0,0-.69-.05,4.41,4.41,0,0,0-1,.12,6.92,6.92,0,0,0-1.1.34h-.06V51.1a7.33,7.33,0,0,1,.93-.19,6.23,6.23,0,0,1,1.2-.11,6,6,0,0,1,1.21.11,2.49,2.49,0,0,1,.89.39,1.77,1.77,0,0,1,.57.7,2.81,2.81,0,0,1,.19,1.07Zm-1.11-1.62V54.07l-1.18.09a5.56,5.56,0,0,0-1.08.17,1.85,1.85,0,0,0-.77.42,1.08,1.08,0,0,0-.29.79,1.06,1.06,0,0,0,.34.85,1.59,1.59,0,0,0,1,.29,2.45,2.45,0,0,0,1-.23,4.27,4.27,0,0,0,.89-.55Zm12.8,1.62h-1.11V53.79c0-.28,0-.56,0-.82a1.7,1.7,0,0,0-.16-.63.89.89,0,0,0-.39-.38,1.59,1.59,0,0,0-.73-.13,2,2,0,0,0-.92.24,5.25,5.25,0,0,0-.93.58c0,.1,0,.2,0,.32s0,.23,0,.35v4.2h-1.11V53.79c0-.29,0-.57,0-.83a1.79,1.79,0,0,0-.16-.62.84.84,0,0,0-.39-.38,1.59,1.59,0,0,0-.73-.13,2.21,2.21,0,0,0-.91.22,5.06,5.06,0,0,0-.9.58v4.89h-1.11V51H178v.72a5,5,0,0,1,1-.66,2.56,2.56,0,0,1,1.09-.25,2.14,2.14,0,0,1,1.14.29,1.69,1.69,0,0,1,.69.78,5.56,5.56,0,0,1,1.23-.82,2.9,2.9,0,0,1,1.18-.25,1.88,1.88,0,0,1,1.59.66,2.85,2.85,0,0,1,.52,1.83ZM194,54.36H189.2a2.82,2.82,0,0,0,.18,1,1.94,1.94,0,0,0,.5.73,1.89,1.89,0,0,0,.73.42,2.73,2.73,0,0,0,.92.14,4,4,0,0,0,2.32-.79h.05v1.21a11.6,11.6,0,0,1-1.13.39,4.93,4.93,0,0,1-1.23.16,3.51,3.51,0,0,1-2.54-.89,3.3,3.3,0,0,1-.92-2.5,3.62,3.62,0,0,1,.88-2.55,3,3,0,0,1,2.31-.95,2.7,2.7,0,0,1,2,.78,3.12,3.12,0,0,1,.72,2.2ZM193,53.52a2,2,0,0,0-.44-1.35,1.73,1.73,0,0,0-1.32-.47,1.9,1.9,0,0,0-1.41.52,2.05,2.05,0,0,0-.6,1.3Zm8.23,4h-1.11V53.79a7.48,7.48,0,0,0-.05-.85,1.68,1.68,0,0,0-.19-.62.87.87,0,0,0-.43-.37,1.8,1.8,0,0,0-.72-.12,2.42,2.42,0,0,0-.94.22,4.48,4.48,0,0,0-.95.58v4.89H195.7V51h1.11v.72a4.49,4.49,0,0,1,1.07-.66,2.86,2.86,0,0,1,1.14-.25,2,2,0,0,1,1.62.65,2.72,2.72,0,0,1,.56,1.84Zm5.52-.06a4.54,4.54,0,0,1-.68.14,3.92,3.92,0,0,1-.65,0,2,2,0,0,1-1.53-.54,2.4,2.4,0,0,1-.52-1.73V51.89h-.75V51h.75V49.08h1.1V51h2.28v.92h-2.28v3c0,.34,0,.61,0,.8a1.3,1.3,0,0,0,.16.55.79.79,0,0,0,.36.34,1.54,1.54,0,0,0,.69.11,2.36,2.36,0,0,0,.56-.08l.42-.14h.06Zm6.92-3.21a3.69,3.69,0,0,1-.82,2.53,2.79,2.79,0,0,1-2.19.92,2.84,2.84,0,0,1-2.22-.92,4.36,4.36,0,0,1,0-5.06,2.83,2.83,0,0,1,2.22-.94,2.78,2.78,0,0,1,2.19.94,3.67,3.67,0,0,1,.82,2.53Zm-1.14,0a3,3,0,0,0-.49-1.89,1.89,1.89,0,0,0-2.78,0,3.8,3.8,0,0,0,0,3.75,1.83,1.83,0,0,0,2.76,0,2.91,2.91,0,0,0,.5-1.86Zm0,0" transform="translate(-1)"></path><path class="c" d="M254.06,3.41a1.1,1.1,0,0,1,.46,1,1.07,1.07,0,0,1-.42.93,3.23,3.23,0,0,1-1.54.27h-1.31V3.12h1.31a3,3,0,0,1,1.5.29Zm-3.83-1v6.9h1v-3h1.61l1.46,3h1.18L254,6.14a1.77,1.77,0,0,0,1.16-.6,1.64,1.64,0,0,0,.45-1.22,1.6,1.6,0,0,0-.68-1.44,3.94,3.94,0,0,0-2.16-.46ZM257.5,8a5,5,0,0,1-1.14,1.66,5.2,5.2,0,0,1-1.75,1.16,5.09,5.09,0,0,1-4.05,0,5.3,5.3,0,0,1-1.73-1.17A4.92,4.92,0,0,1,247.66,8a5.23,5.23,0,0,1-.39-2,5.14,5.14,0,0,1,.41-2,5.63,5.63,0,0,1,1.17-1.77,5.23,5.23,0,0,1,1.71-1.14,5.16,5.16,0,0,1,2-.38,5.32,5.32,0,0,1,2.06.39,5.39,5.39,0,0,1,1.74,1.17,4.92,4.92,0,0,1,1.13,1.7,5.44,5.44,0,0,1,.4,2.06,5.24,5.24,0,0,1-.39,2ZM250.29.44a5.3,5.3,0,0,0-1.89,1.27,6.11,6.11,0,0,0-1.33,2A5.66,5.66,0,0,0,246.62,6a5.89,5.89,0,0,0,.43,2.28,6,6,0,0,0,1.3,1.92,5.8,5.8,0,0,0,1.94,1.33,5.94,5.94,0,0,0,4.56,0,6.31,6.31,0,0,0,2-1.34,5.48,5.48,0,0,0,1.27-1.89A6,6,0,0,0,258.54,6a6.15,6.15,0,0,0-.44-2.3,5.8,5.8,0,0,0-1.27-1.92A5.87,5.87,0,0,0,252.56,0a5.57,5.57,0,0,0-2.27.44Zm0,0" transform="translate(-1)"></path></svg>